PathFileType	4	(X/Y/Z)	output.trc
DataRate	CameraRate	NumFrames	NumMarkers	Units	OrigDataRate	OrigDataStartFrame	OrigNumFrames
128	128	8	47	mm	128	501	1000
Frame#	Time	C7			LSHO			RSHO			CLAV			T10			LUPA			RELB			LELB			LFRA			RFRA			RWRB			RWRA			RFIN			LWRB			LWRA			LFIN			RASI			LASI			RPSI			LPSI			RANK			LANK			LMMA			LHEE			LTOE			RMMA			RHEE			RTOE			RMT5			LMT5			RKNE			LKNE			LMFC			RMFC			RFM2			LFM2			RTP2			RTP3			RTA3			LTP2			LTP3			LTA3			LBHD			RBHD			RFHD			RGTR			LGTR			
		X1	Y1	Z1	X2	Y2	Z2	X3	Y3	Z3	X4	Y4	Z4	X5	Y5	Z5	X6	Y6	Z6	X7	Y7	Z7	X8	Y8	Z8	X9	Y9	Z9	X10	Y10	Z10	X11	Y11	Z11	X12	Y12	Z12	X13	Y13	Z13	X14	Y14	Z14	X15	Y15	Z15	X16	Y16	Z16	X17	Y17	Z17	X18	Y18	Z18	X19	Y19	Z19	X20	Y20	Z20	X21	Y21	Z21	X22	Y22	Z22	X23	Y23	Z23	X24	Y24	Z24	X25	Y25	Z25	X26	Y26	Z26	X27	Y27	Z27	X28	Y28	Z28	X29	Y29	Z29	X30	Y30	Z30	X31	Y31	Z31	X32	Y32	Z32	X33	Y33	Z33	X34	Y34	Z34	X35	Y35	Z35	X36	Y36	Z36	X37	Y37	Z37	X38	Y38	Z38	X39	Y39	Z39	X40	Y40	Z40	X41	Y41	Z41	X42	Y42	Z42	X43	Y43	Z43	X44	Y44	Z44	X45	Y45	Z45	X46	Y46	Z46	X47	Y47	Z47	

501	3.90625	1551.17520	1529.13752	1523.85045	1451.19146	1284.57010	1401.17038	1127.92734	1133.12814	1028.64622	1019.59894	862.47552	878.81255	788.47157	882.05424	882.35091	783.29156	1035.18523	1036.47104	1133.14927	1137.95593	65.48961	67.11027	80.23399	26.97626	39.05620	52.71184	23.14161	35.52805	26.17841	25.38590	507.47918	514.96729	516.31223	525.56076	599.75446	644.88670	273.87589	325.89201	300.46089	290.42697	354.30518	310.43054	1434.72106	1834.72106	1464.72106	1434.72106	1834.72106	1604.72106	1634.72106	1834.72106	1604.72106	862.47552	882.05424	
502	3.91406	1551.14465	1529.18168	1523.74642	1450.62710	1285.18491	1400.97753	1127.86939	1133.11931	1028.39839	1019.16075	861.99468	878.30084	787.75836	881.62143	881.91157	782.74211	1034.96974	1036.24214	1133.49348	1138.25581	65.53540	67.14182	80.21201	26.96702	39.02900	52.69190	23.15896	35.43462	26.15303	25.35185	507.47023	514.96515	516.30215	525.55850	599.70545	644.80190	273.89389	325.88300	300.45907	290.42190	354.27943	310.44971	1434.69091	1834.69091	1464.69091	1434.69091	1834.69091	1604.69091	1634.69091	1834.69091	1604.69091	861.99468	881.62143	
503	3.92188	1550.97798	1529.23390	1523.71330	1450.06058	1285.82892	1400.85942	1127.90066	1133.15978	1028.17853	1018.77767	861.32813	877.74493	787.16607	881.20838	881.49773	782.23840	1034.71658	1036.01912	1133.87787	1138.66752	65.50725	67.13767	80.21246	27.00028	39.00997	52.69470	23.13991	35.44337	26.13525	25.31995	507.40116	514.89696	516.21168	525.50937	599.60812	644.72551	273.90816	325.91598	300.54341	290.43496	354.30847	310.45783	1434.64173	1834.64173	1464.64173	1434.64173	1834.64173	1604.64173	1634.64173	1834.64173	1604.64173	861.32813	881.20838	
504	3.92969	1550.50010	1529.40974	1523.74701	1449.46383	1286.50847	1400.70040	1127.86507	1133.22684	1027.99668	1018.42756	860.89661	877.19578	786.51503	880.88078	881.12237	781.85522	1034.46831	1035.81302	1134.28803	1139.09358	65.46763	67.14796	80.24146	26.97927	39.00378	52.72047	23.15491	35.51238	26.14498	25.32615	507.37523	514.78012	516.16344	525.51486	599.51309	644.61495	273.96805	325.93254	300.56451	290.44464	354.30718	310.46538	1434.55229	1834.55229	1464.55229	1434.55229	1834.55229	1604.55229	1634.55229	1834.55229	1604.55229	860.89661	880.88078	
505	3.93750	1550.51481	1529.45005	1523.76410	1448.84289	1287.14212	1400.53639	1127.81717	1133.26869	1027.83317	1018.07566	860.40958	876.68626	785.88072	880.53050	880.83821	781.40700	1034.18795	1035.55767	1134.78280	1139.55966	65.52352	67.15125	80.23849	27.01139	38.98248	52.71471	23.16415	35.43027	26.17928	25.32539	507.33672	514.75779	516.15750	525.49196	599.44119	644.52848	273.96754	325.96271	300.50856	290.49643	354.31376	310.54772	1434.57632	1834.57632	1464.57632	1434.57632	1834.57632	1604.57632	1634.57632	1834.57632	1604.57632	860.40958	880.53050	
506	3.94531	1550.36880	1529.49514	1523.65221	1448.23547	1287.76925	1400.46930	1127.79389	1133.44499	1027.70252	1017.73600	859.97431	876.20928	785.24156	880.29138	880.61805	781.12268	1033.94867	1035.27229	1135.19969	1140.00096	65.54526	67.14025	80.25327	26.99799	38.99397	52.71591	23.14853	35.49621	26.14699	25.33664	507.30198	514.74616	516.13800	525.50312	599.40367	644.44273	274.01524	326.02713	300.55256	290.53313	354.38013	310.62864	1434.50538	1834.50538	1464.50538	1434.50538	1834.50538	1604.50538	1634.50538	1834.50538	1604.50538	859.97431	880.29138	
507	3.95312	1550.28703	1529.53022	1523.40606	1447.70807	1288.42670	1400.44710	1127.77172	1133.65773	1027.66156	1017.35321	859.53211	875.62608	784.67023	880.07595	880.46882	780.93408	1033.66093	1035.06190	1135.71788	1140.46147	65.53142	67.13391	80.24504	26.97473	38.98412	52.68526	23.16363	35.47020	26.18950	25.31067	507.21165	514.76351	516.15564	525.46906	599.34465	644.38030	274.06949	326.02321	300.62247	290.57531	354.42477	310.60691	1434.40777	1834.40777	1464.40777	1434.40777	1834.40777	1604.40777	1634.40777	1834.40777	1604.40777	859.53211	880.07595	
508	3.96094	1550.16159	1529.60433	1523.53828	1447.10205	1289.09197	1400.48644	1127.71264	1133.96600	1027.73413	1016.98265	859.06362	875.12242	784.08303	879.95503	880.39226	780.66991	1033.38681	1034.77569	1136.21303	1140.95611	65.50793	67.12885	80.26591	26.93872	38.98429	52.70399	23.12952	35.44547	26.19681	25.34209	507.24687	514.76731	516.08879	525.45371	599.28840	644.32457	274.05577	326.04705	300.68468	290.57994	354.46593	310.67028	1434.43473	1834.43473	1464.43473	1434.43473	1834.43473	1604.43473	1634.43473	1834.43473	1604.43473	859.06362	879.95503	
